<?xml version="1.0" encoding="utf-8"?>
<!-- Generator: Adobe Illustrator 16.0.0, SVG Export Plug-In . SVG Version: 6.00 Build 0)  -->
<!DOCTYPE svg PUBLIC "-//W3C//DTD SVG 1.1//EN" "http://www.w3.org/Graphics/SVG/1.1/DTD/svg11.dtd">
<svg version="1.1" id="Camada_1" xmlns="http://www.w3.org/2000/svg" xmlns:xlink="http://www.w3.org/1999/xlink" x="0px" y="0px"
	 width="142.222px" height="40px" viewBox="0 0 142.222 40" enable-background="new 0 0 142.222 40" xml:space="preserve">
<g>
	<defs>
		<rect id="SVGID_1_" y="-25" width="142.222" height="80"/>
	</defs>
	<clipPath id="SVGID_2_">
		<use xlink:href="#SVGID_1_"  overflow="visible"/>
	</clipPath>
	<path clip-path="url(#SVGID_2_)" fill="#FFFFFF" d="M11.997,15.573v7.987c0,1.252,0.676,1.914,1.956,1.914
		c0.665,0,1.511-0.132,2.396-0.374l0.536,3.562c-1.113,0.438-3.067,0.73-4.251,0.73c-3.62,0-5.379-1.692-5.379-5.173v-8.646H11.997z
		"/>
	<path clip-path="url(#SVGID_2_)" fill="#FFFFFF" d="M30.348,8.827c-1.76,0.535-4.07,1.903-5.071,2.571l-0.188,0.125l-0.345-2.326
		h-3.979V28.98h4.742V16.104l0.066-0.042c1.721-1.095,3.274-2.008,5.239-2.893L30.348,8.827z"/>
	<polygon clip-path="url(#SVGID_2_)" fill="#FFFFFF" points="33.947,2.179 33.947,7.563 38.688,7.563 38.688,1.515 	"/>
	<rect x="33.947" y="9.197" clip-path="url(#SVGID_2_)" fill="#FFFFFF" width="4.741" height="19.783"/>
	<path clip-path="url(#SVGID_2_)" fill="#FFFFFF" d="M58.976,15.524c0-4.535-1.935-6.739-5.915-6.739
		c-2.239,0-4.505,0.611-5.879,1.184l-0.198,0.083V0.317l-4.741,0.66v27.739c2.433,0.467,5.579,0.676,7.645,0.676
		c7.568,0,9.088-3.052,9.088-7.976V15.524z M54.234,21.582c0,2.353-0.686,3.811-4.099,3.811c-1.217,0-2.207-0.054-3.028-0.166
		l-0.123-0.018V13.99l0.083-0.038c1.209-0.564,3.019-1.168,4.47-1.168c1.84,0,2.698,0.831,2.698,2.616V21.582z"/>
	<path clip-path="url(#SVGID_2_)" fill="#FFFFFF" d="M93.713,15.111V28.98h4.741V14.576c0-3.897-1.436-5.791-4.39-5.791
		c-2.265,0-5.395,0.819-7.973,2.087l-0.153,0.075l-0.512-1.75h-3.582V28.98h4.742V15.107l0.077-0.04
		c1.921-1.004,4.101-1.705,5.3-1.705C93.157,13.362,93.713,13.918,93.713,15.111"/>
	<path clip-path="url(#SVGID_2_)" fill="#FFFFFF" d="M110.673,25.352c-2.911,0-3.893-0.879-3.893-3.481v-5.563
		c0-2.604,0.982-3.481,3.893-3.481c0.86,0,2.616,0.134,4.044,0.499l0.577-3.843c-1.507-0.481-3.455-0.697-4.745-0.697
		c-6.125,0-8.512,2.12-8.512,7.563v5.481c0,5.442,2.387,7.563,8.512,7.563c1.607,0,3.452-0.271,4.745-0.696l-0.577-3.847
		C113.387,25.178,111.993,25.352,110.673,25.352"/>
	<path clip-path="url(#SVGID_2_)" fill="#FFFFFF" d="M126.374,29.393c5.702,0,8.593-2.614,8.593-7.77v-5.068
		c0-5.155-2.891-7.77-8.593-7.77s-8.593,2.614-8.593,7.77v5.068C117.78,26.778,120.671,29.393,126.374,29.393 M122.522,16.39
		c0-2.459,1.224-3.605,3.852-3.605c2.628,0,3.852,1.146,3.852,3.605v5.398c0,2.459-1.224,3.604-3.852,3.604
		c-2.627,0-3.852-1.146-3.852-3.604V16.39z"/>
	<path clip-path="url(#SVGID_2_)" fill="#FFFFFF" d="M69.87,8.785c-2.193,0-4.873,0.362-6.721,0.906l0.574,3.561
		c1.87-0.381,3.798-0.591,5.446-0.591c3.122,0,3.976,0.514,3.976,2.988v1.006c-2.259,0.035-5.487,0.415-7.948,1.593
		c-1.955,0.936-3.052,2.453-3.052,5.313c0,2.178,0.661,5.832,5.091,5.832c2.092,0,4.513-0.621,6.224-1.749l0.165-0.108l0.394,1.445
		h3.869V15.895C77.886,10.646,75.789,8.785,69.87,8.785 M73.145,24.591l-0.073,0.042c-0.693,0.392-2.444,1.048-4.188,1.048
		c-1.556,0-2.163-0.606-2.163-2.162c0-1.115,0.294-1.908,0.958-2.271c1.356-0.737,2.905-1.327,3.715-1.327
		c1.195,0,1.75,1.21,1.75,2.403V24.591z"/>
</g>
<g>
	<defs>
		<polygon id="SVGID_3_" points="7.255,4.192 7.255,13.938 17.663,13.938 17.002,9.197 11.997,9.197 11.997,3.531 		"/>
	</defs>
	<clipPath id="SVGID_4_">
		<use xlink:href="#SVGID_3_"  overflow="visible"/>
	</clipPath>
	
		<linearGradient id="SVGID_5_" gradientUnits="userSpaceOnUse" x1="-2.9282" y1="57.9805" x2="-2.8543" y2="57.9805" gradientTransform="matrix(102.2557 -102.2557 -102.2557 -102.2557 6235.5127 5643.2158)">
		<stop  offset="0" style="stop-color:#8CD133"/>
		<stop  offset="1" style="stop-color:#05BDFB"/>
	</linearGradient>
	<polygon clip-path="url(#SVGID_4_)" fill="url(#SVGID_5_)" points="2.052,8.735 12.459,-1.672 22.866,8.735 12.459,19.143 	"/>
</g>
<g>
	<defs>
		<rect id="SVGID_6_" y="-25" width="142.222" height="80"/>
	</defs>
	<clipPath id="SVGID_7_">
		<use xlink:href="#SVGID_6_"  overflow="visible"/>
	</clipPath>
	<path clip-path="url(#SVGID_7_)" fill="#FFFFFF" d="M134.166,38.584c0.096-0.096,0.144-0.21,0.144-0.344s-0.048-0.249-0.144-0.345
		s-0.21-0.144-0.344-0.144s-0.249,0.048-0.344,0.144s-0.143,0.211-0.143,0.345s0.047,0.248,0.143,0.344s0.21,0.144,0.344,0.144
		S134.07,38.68,134.166,38.584 M128.863,36.619c0.226-0.169,0.531-0.254,0.913-0.254c0.28,0,0.532,0.03,0.755,0.091
		c0.223,0.062,0.434,0.158,0.631,0.292v0.899c-0.191,0.19-0.405,0.331-0.641,0.42c-0.236,0.09-0.497,0.135-0.784,0.135
		c-0.357,0-0.649-0.085-0.875-0.254c-0.227-0.169-0.34-0.387-0.34-0.655C128.523,37.013,128.637,36.788,128.863,36.619
		 M130.451,38.618c0.258-0.093,0.496-0.231,0.712-0.416v0.468h0.688v-3.223c0-0.535-0.165-0.946-0.493-1.233
		c-0.328-0.286-0.795-0.431-1.401-0.431c-0.293,0-0.586,0.039-0.88,0.115s-0.612,0.198-0.956,0.363l0.268,0.545
		c0.287-0.146,0.55-0.253,0.789-0.32c0.239-0.066,0.477-0.101,0.712-0.101c0.415,0,0.73,0.098,0.947,0.292s0.325,0.483,0.325,0.865
		v0.632c-0.421-0.217-0.89-0.325-1.406-0.325c-0.587,0-1.052,0.13-1.396,0.392c-0.345,0.262-0.517,0.618-0.517,1.071
		c0,0.287,0.075,0.539,0.225,0.755c0.15,0.218,0.357,0.387,0.622,0.508s0.572,0.181,0.923,0.181
		C129.914,38.756,130.192,38.71,130.451,38.618 M126.74,38.737c0.15-0.02,0.285-0.051,0.406-0.096v-0.621
		c-0.121,0.044-0.234,0.076-0.339,0.096c-0.105,0.019-0.225,0.028-0.358,0.028c-0.262,0-0.45-0.056-0.564-0.167
		c-0.115-0.112-0.172-0.296-0.172-0.551v-2.945h1.444v-0.603h-1.444v-1.396l-0.698,0.182v1.214h-1.033v0.603h1.033v3.127
		c0,0.377,0.111,0.663,0.334,0.861c0.223,0.197,0.542,0.296,0.957,0.296C126.445,38.766,126.59,38.756,126.74,38.737
		 M122.581,38.575c0.29-0.128,0.521-0.304,0.693-0.526c0.172-0.223,0.258-0.472,0.258-0.746c0-0.376-0.119-0.673-0.358-0.89
		c-0.239-0.216-0.598-0.356-1.076-0.42l-0.832-0.115c-0.313-0.045-0.539-0.123-0.679-0.234s-0.21-0.275-0.21-0.492
		c0-0.236,0.102-0.427,0.306-0.574c0.204-0.146,0.472-0.22,0.803-0.22c0.261,0,0.518,0.043,0.77,0.129
		c0.251,0.086,0.511,0.222,0.779,0.406l0.373-0.478c-0.293-0.217-0.593-0.376-0.899-0.479c-0.306-0.102-0.635-0.153-0.985-0.153
		c-0.35,0-0.661,0.062-0.932,0.183s-0.483,0.286-0.636,0.497c-0.153,0.21-0.229,0.449-0.229,0.717c0,0.37,0.116,0.663,0.349,0.88
		c0.232,0.217,0.588,0.36,1.066,0.431l0.832,0.114c0.306,0.045,0.531,0.126,0.674,0.244c0.144,0.118,0.215,0.282,0.215,0.492
		c0,0.256-0.121,0.463-0.363,0.622s-0.555,0.239-0.937,0.239c-0.281,0-0.555-0.056-0.822-0.168
		c-0.268-0.111-0.513-0.269-0.736-0.473l-0.431,0.459c0.255,0.235,0.556,0.419,0.904,0.55c0.348,0.13,0.719,0.195,1.114,0.195
		C121.96,38.766,122.291,38.702,122.581,38.575 M118.65,32.818c0.092-0.096,0.139-0.208,0.139-0.335c0-0.134-0.047-0.247-0.139-0.34
		c-0.092-0.092-0.206-0.139-0.339-0.139c-0.127,0-0.239,0.047-0.334,0.139c-0.096,0.093-0.144,0.202-0.144,0.33
		c0,0.134,0.048,0.249,0.144,0.345c0.096,0.095,0.207,0.143,0.334,0.143C118.444,32.961,118.558,32.913,118.65,32.818
		 M118.665,33.879h-0.708v4.791h0.708V33.879z M116.24,40.406c0.213-0.208,0.32-0.506,0.32-0.895v-5.633h-0.708v5.575
		c0,0.229-0.046,0.396-0.139,0.498c-0.092,0.102-0.25,0.152-0.473,0.152c-0.134,0-0.252-0.013-0.354-0.038v0.593
		c0.051,0.013,0.115,0.025,0.191,0.038c0.076,0.013,0.159,0.02,0.249,0.02C115.722,40.717,116.027,40.613,116.24,40.406
		 M116.546,32.818c0.092-0.096,0.139-0.208,0.139-0.335c0-0.134-0.046-0.247-0.139-0.34c-0.093-0.092-0.206-0.139-0.339-0.139
		c-0.128,0-0.239,0.047-0.335,0.139c-0.096,0.093-0.144,0.206-0.144,0.34c0,0.127,0.048,0.239,0.144,0.335
		c0.096,0.095,0.207,0.143,0.335,0.143C116.341,32.961,116.454,32.913,116.546,32.818 M111.062,35.146
		c0.153-0.227,0.344-0.403,0.574-0.53c0.229-0.128,0.481-0.191,0.756-0.191c0.268,0,0.513,0.065,0.736,0.195
		c0.223,0.131,0.41,0.31,0.56,0.536s0.244,0.482,0.282,0.77h-3.204C110.81,35.633,110.909,35.373,111.062,35.146 M113.467,38.608
		c0.29-0.099,0.569-0.247,0.836-0.445l-0.439-0.468c-0.16,0.14-0.357,0.248-0.593,0.325c-0.236,0.076-0.478,0.114-0.727,0.114
		c-0.313,0-0.6-0.071-0.861-0.215s-0.473-0.34-0.636-0.588c-0.163-0.249-0.263-0.529-0.301-0.842h3.93V36.27
		c0-0.459-0.1-0.874-0.301-1.247c-0.201-0.373-0.472-0.67-0.813-0.89c-0.341-0.22-0.726-0.33-1.152-0.33
		c-0.44,0-0.838,0.11-1.195,0.33c-0.357,0.22-0.641,0.517-0.851,0.89c-0.211,0.373-0.316,0.788-0.316,1.247
		c0,0.466,0.11,0.887,0.33,1.263s0.516,0.674,0.889,0.895c0.373,0.22,0.789,0.329,1.248,0.329
		C112.86,38.756,113.177,38.707,113.467,38.608 M107.811,38.67v-3.279c0.128-0.319,0.301-0.563,0.521-0.731
		c0.22-0.169,0.476-0.254,0.77-0.254c0.083,0,0.166,0.007,0.249,0.02c0.083,0.013,0.166,0.035,0.249,0.066v-0.65
		c-0.134-0.044-0.284-0.066-0.45-0.066c-0.293,0-0.553,0.068-0.779,0.205c-0.227,0.138-0.413,0.33-0.56,0.579v-0.68h-0.708v4.791
		H107.811z M102.738,36.619c0.226-0.169,0.531-0.254,0.913-0.254c0.281,0,0.532,0.03,0.755,0.091
		c0.223,0.062,0.434,0.158,0.631,0.292v0.899c-0.191,0.19-0.405,0.331-0.641,0.42c-0.236,0.09-0.498,0.135-0.784,0.135
		c-0.357,0-0.649-0.085-0.875-0.254c-0.227-0.169-0.339-0.387-0.339-0.655C102.398,37.013,102.511,36.788,102.738,36.619
		 M104.325,38.618c0.258-0.093,0.496-0.231,0.712-0.416v0.468h0.688v-3.223c0-0.535-0.164-0.946-0.492-1.233
		c-0.329-0.286-0.795-0.431-1.401-0.431c-0.293,0-0.586,0.039-0.88,0.115c-0.293,0.076-0.612,0.198-0.956,0.363l0.268,0.545
		c0.287-0.146,0.55-0.253,0.789-0.32c0.239-0.066,0.477-0.101,0.712-0.101c0.415,0,0.73,0.098,0.947,0.292s0.325,0.483,0.325,0.865
		v0.632c-0.421-0.217-0.889-0.325-1.406-0.325c-0.586,0-1.052,0.13-1.396,0.392s-0.517,0.618-0.517,1.071
		c0,0.287,0.075,0.539,0.225,0.755c0.15,0.218,0.357,0.387,0.622,0.508s0.572,0.181,0.923,0.181
		C103.788,38.756,104.067,38.71,104.325,38.618 M99.31,38.67l2.065-4.791h-0.755l-1.635,3.873l-1.635-3.873h-0.784l2.075,4.791
		H99.31z M90.364,37.886c-0.265-0.165-0.475-0.389-0.631-0.669s-0.234-0.593-0.234-0.938c0-0.351,0.078-0.664,0.234-0.941
		s0.367-0.499,0.631-0.665c0.264-0.166,0.559-0.248,0.884-0.248s0.62,0.082,0.885,0.248c0.264,0.166,0.475,0.388,0.631,0.665
		s0.234,0.591,0.234,0.941c0,0.345-0.078,0.657-0.234,0.938s-0.367,0.504-0.631,0.669c-0.265,0.166-0.56,0.249-0.885,0.249
		S90.628,38.052,90.364,37.886 M92.491,38.436c0.37-0.22,0.663-0.518,0.88-0.894s0.325-0.797,0.325-1.263
		c0-0.465-0.108-0.886-0.325-1.262s-0.51-0.675-0.88-0.895c-0.37-0.22-0.784-0.33-1.243-0.33c-0.453,0-0.865,0.11-1.238,0.33
		s-0.668,0.519-0.885,0.895c-0.216,0.376-0.325,0.797-0.325,1.262c0,0.466,0.108,0.887,0.325,1.263
		c0.217,0.376,0.512,0.674,0.885,0.894c0.373,0.221,0.786,0.33,1.238,0.33C91.707,38.766,92.122,38.656,92.491,38.436 M84.54,37.877
		c-0.271-0.166-0.485-0.39-0.641-0.67s-0.234-0.596-0.234-0.946s0.078-0.665,0.234-0.942s0.37-0.495,0.641-0.655
		c0.271-0.159,0.572-0.238,0.903-0.238c0.3,0,0.579,0.059,0.837,0.177s0.47,0.278,0.636,0.482v2.372
		c-0.166,0.21-0.377,0.374-0.636,0.492s-0.537,0.177-0.837,0.177C85.112,38.125,84.811,38.042,84.54,37.877 M86.926,38.163v0.507
		h0.698v-6.856l-0.708,0.163v2.371c-0.217-0.178-0.456-0.313-0.717-0.406c-0.262-0.092-0.533-0.139-0.813-0.139
		c-0.453,0-0.862,0.11-1.229,0.33c-0.367,0.22-0.657,0.515-0.871,0.885c-0.213,0.369-0.32,0.787-0.32,1.252
		c0,0.466,0.107,0.885,0.32,1.258s0.503,0.67,0.871,0.89c0.366,0.22,0.772,0.33,1.219,0.33
		C85.989,38.747,86.505,38.553,86.926,38.163 M76.431,37.886c-0.265-0.165-0.475-0.389-0.631-0.669
		c-0.156-0.28-0.234-0.593-0.234-0.938c0-0.351,0.078-0.664,0.234-0.941c0.156-0.277,0.366-0.499,0.631-0.665
		s0.56-0.248,0.885-0.248s0.62,0.082,0.884,0.248s0.475,0.388,0.631,0.665s0.234,0.591,0.234,0.941c0,0.345-0.078,0.657-0.234,0.938
		s-0.367,0.504-0.631,0.669c-0.265,0.166-0.559,0.249-0.884,0.249S76.695,38.052,76.431,37.886 M78.559,38.436
		c0.37-0.22,0.663-0.518,0.88-0.894c0.216-0.376,0.325-0.797,0.325-1.263c0-0.465-0.108-0.886-0.325-1.262
		c-0.217-0.376-0.51-0.675-0.88-0.895s-0.784-0.33-1.243-0.33c-0.453,0-0.866,0.11-1.239,0.33c-0.373,0.22-0.667,0.519-0.884,0.895
		s-0.325,0.797-0.325,1.262c0,0.466,0.108,0.887,0.325,1.263s0.512,0.674,0.884,0.894c0.373,0.221,0.786,0.33,1.239,0.33
		C77.774,38.766,78.189,38.656,78.559,38.436 M73.347,38.556c0.318-0.134,0.605-0.322,0.86-0.564l-0.44-0.479
		c-0.204,0.198-0.422,0.348-0.655,0.45c-0.233,0.102-0.48,0.153-0.741,0.153c-0.325,0-0.622-0.082-0.889-0.244
		c-0.268-0.163-0.48-0.385-0.636-0.665s-0.234-0.593-0.234-0.938c0-0.344,0.078-0.654,0.234-0.932s0.367-0.497,0.631-0.66
		c0.265-0.162,0.56-0.244,0.885-0.244c0.262,0,0.515,0.053,0.76,0.158c0.245,0.105,0.464,0.26,0.655,0.464l0.449-0.517
		c-0.249-0.242-0.536-0.429-0.861-0.56c-0.325-0.13-0.663-0.196-1.013-0.196c-0.453,0-0.864,0.112-1.234,0.335
		c-0.37,0.224-0.663,0.521-0.88,0.895s-0.325,0.792-0.325,1.257c0,0.466,0.108,0.887,0.325,1.263s0.51,0.674,0.88,0.895
		c0.37,0.22,0.781,0.329,1.234,0.329C72.697,38.756,73.028,38.689,73.347,38.556 M65.4,38.67v-3.528
		c0.146-0.235,0.331-0.417,0.555-0.545c0.223-0.128,0.478-0.191,0.765-0.191c0.415,0,0.741,0.123,0.98,0.368
		c0.239,0.245,0.358,0.582,0.358,1.009v2.888h0.698v-3.031c0-0.369-0.078-0.693-0.234-0.971s-0.373-0.494-0.65-0.65
		c-0.277-0.155-0.598-0.234-0.961-0.234c-0.631,0-1.135,0.221-1.511,0.66v-0.564h-0.708v4.791H65.4z M60.327,36.619
		c0.226-0.169,0.531-0.254,0.913-0.254c0.281,0,0.533,0.03,0.756,0.091c0.223,0.062,0.434,0.158,0.631,0.292v0.899
		c-0.191,0.19-0.405,0.331-0.641,0.42c-0.236,0.09-0.497,0.135-0.784,0.135c-0.357,0-0.649-0.085-0.875-0.254
		s-0.339-0.387-0.339-0.655C59.988,37.013,60.101,36.788,60.327,36.619 M61.915,38.618c0.258-0.093,0.496-0.231,0.712-0.416v0.468
		h0.689v-3.223c0-0.535-0.165-0.946-0.493-1.233c-0.329-0.286-0.795-0.431-1.401-0.431c-0.293,0-0.587,0.039-0.88,0.115
		c-0.293,0.076-0.612,0.198-0.956,0.363l0.268,0.545c0.287-0.146,0.55-0.253,0.789-0.32c0.239-0.066,0.477-0.101,0.713-0.101
		c0.414,0,0.729,0.098,0.947,0.292c0.216,0.194,0.325,0.483,0.325,0.865v0.632c-0.42-0.217-0.889-0.325-1.406-0.325
		c-0.586,0-1.052,0.13-1.396,0.392s-0.517,0.618-0.517,1.071c0,0.287,0.075,0.539,0.225,0.755c0.149,0.218,0.357,0.387,0.622,0.508
		c0.264,0.121,0.572,0.181,0.922,0.181C61.377,38.756,61.656,38.71,61.915,38.618 M55.035,37.948
		c-0.262-0.118-0.475-0.278-0.641-0.482v-2.372c0.166-0.21,0.378-0.374,0.636-0.492c0.258-0.118,0.538-0.177,0.837-0.177
		c0.338,0,0.641,0.081,0.909,0.243c0.268,0.163,0.479,0.385,0.636,0.665s0.234,0.596,0.234,0.946s-0.078,0.665-0.234,0.942
		s-0.368,0.497-0.636,0.66c-0.268,0.162-0.571,0.243-0.909,0.243C55.573,38.125,55.296,38.066,55.035,37.948 M54.384,38.67v-0.478
		c0.216,0.179,0.457,0.315,0.722,0.411s0.537,0.144,0.818,0.144c0.459,0,0.87-0.11,1.233-0.33s0.652-0.517,0.866-0.89
		c0.213-0.373,0.32-0.792,0.32-1.258c0-0.465-0.107-0.883-0.32-1.252c-0.214-0.37-0.502-0.665-0.866-0.885s-0.771-0.33-1.224-0.33
		c-0.618,0-1.132,0.194-1.54,0.583v-2.572l-0.708,0.163v6.693H54.384z M45.715,37.886c-0.328-0.14-0.615-0.336-0.86-0.588
		c-0.246-0.252-0.437-0.546-0.574-0.885c-0.137-0.338-0.206-0.704-0.206-1.1c0-0.389,0.068-0.75,0.206-1.085s0.328-0.628,0.574-0.88
		c0.245-0.252,0.532-0.448,0.86-0.588c0.329-0.141,0.684-0.211,1.066-0.211c0.383,0,0.736,0.07,1.062,0.211
		c0.325,0.14,0.61,0.336,0.856,0.588c0.245,0.252,0.437,0.545,0.574,0.88c0.137,0.335,0.206,0.699,0.206,1.095
		c0,0.389-0.069,0.752-0.206,1.09c-0.137,0.339-0.329,0.633-0.574,0.885c-0.246,0.252-0.531,0.448-0.856,0.588
		c-0.325,0.141-0.679,0.211-1.062,0.211C46.399,38.097,46.044,38.026,45.715,37.886 M48.125,38.513
		c0.417-0.176,0.784-0.421,1.1-0.736s0.561-0.683,0.736-1.1c0.175-0.418,0.263-0.869,0.263-1.354s-0.087-0.936-0.263-1.354
		c-0.175-0.417-0.421-0.783-0.736-1.1c-0.315-0.315-0.682-0.561-1.1-0.736c-0.418-0.175-0.865-0.263-1.344-0.263
		c-0.484,0-0.936,0.088-1.353,0.263c-0.417,0.176-0.784,0.421-1.1,0.736c-0.316,0.316-0.561,0.683-0.737,1.1
		c-0.175,0.418-0.263,0.869-0.263,1.354s0.087,0.936,0.263,1.354c0.176,0.417,0.421,0.784,0.737,1.1
		c0.315,0.315,0.682,0.561,1.1,0.736c0.417,0.175,0.869,0.263,1.353,0.263C47.26,38.775,47.708,38.688,48.125,38.513"/>
</g>
</svg>
